<?xml version="1.0" encoding="UTF-8" standalone="no"?>
<!DOCTYPE svg PUBLIC "-//W3C//DTD SVG 1.1//EN"
 "http://www.w3.org/Graphics/SVG/1.1/DTD/svg11.dtd">
<!-- Generated by graphviz version 2.36.0 (20140111.2315)
 -->
<!-- Title: controllers_diagram Pages: 1 -->
<svg width="631pt" height="636pt"
 viewBox="0.00 0.00 631.00 636.00" xmlns="http://www.w3.org/2000/svg" xmlns:xlink="http://www.w3.org/1999/xlink">
<g id="graph0" class="graph" transform="scale(1 1) rotate(0) translate(4 632)">
<title>controllers_diagram</title>
<polygon fill="none" stroke="none" points="-4,4 -4,-632 627,-632 627,4 -4,4"/>
<!-- _diagram_info -->
<g id="node1" class="node"><title>_diagram_info</title>
<text text-anchor="start" x="350" y="-63.6" font-family="Times,serif" font-size="13.00">Controllers diagram</text>
<text text-anchor="start" x="350" y="-49.6" font-family="Times,serif" font-size="13.00">Date: Apr 25 2016 &#45; 04:15</text>
<text text-anchor="start" x="350" y="-35.6" font-family="Times,serif" font-size="13.00">Migration version: 20160425035754</text>
<text text-anchor="start" x="350" y="-21.6" font-family="Times,serif" font-size="13.00">Generated by RailRoady 1.4.2</text>
<text text-anchor="start" x="350" y="-7.6" font-family="Times,serif" font-size="13.00">http://railroady.prestonlee.com</text>
</g>
<!-- MetashiftsController -->
<g id="node2" class="node"><title>MetashiftsController</title>
<path fill="none" stroke="black" d="M12,-252.5C12,-252.5 118,-252.5 118,-252.5 124,-252.5 130,-258.5 130,-264.5 130,-264.5 130,-363.5 130,-363.5 130,-369.5 124,-375.5 118,-375.5 118,-375.5 12,-375.5 12,-375.5 6,-375.5 0,-369.5 0,-363.5 0,-363.5 0,-264.5 0,-264.5 0,-258.5 6,-252.5 12,-252.5"/>
<text text-anchor="middle" x="65" y="-360.3" font-family="Times,serif" font-size="14.00">MetashiftsController</text>
<polyline fill="none" stroke="black" points="0,-352.5 130,-352.5 "/>
<text text-anchor="start" x="8" y="-337.3" font-family="Times,serif" font-size="14.00">create_metashift</text>
<text text-anchor="start" x="8" y="-322.3" font-family="Times,serif" font-size="14.00">metashift_params</text>
<text text-anchor="start" x="8" y="-307.3" font-family="Times,serif" font-size="14.00">upload</text>
<polyline fill="none" stroke="black" points="0,-299.5 130,-299.5 "/>
<polyline fill="none" stroke="black" points="0,-275.5 130,-275.5 "/>
<text text-anchor="start" x="8" y="-260.3" font-family="Times,serif" font-size="14.00">_layout</text>
</g>
<!-- WorkshiftsController -->
<g id="node3" class="node"><title>WorkshiftsController</title>
<path fill="none" stroke="black" d="M354,-324.5C354,-324.5 463,-324.5 463,-324.5 469,-324.5 475,-330.5 475,-336.5 475,-336.5 475,-480.5 475,-480.5 475,-486.5 469,-492.5 463,-492.5 463,-492.5 354,-492.5 354,-492.5 348,-492.5 342,-486.5 342,-480.5 342,-480.5 342,-336.5 342,-336.5 342,-330.5 348,-324.5 354,-324.5"/>
<text text-anchor="middle" x="408.5" y="-477.3" font-family="Times,serif" font-size="14.00">WorkshiftsController</text>
<polyline fill="none" stroke="black" points="342,-469.5 475,-469.5 "/>
<text text-anchor="start" x="350" y="-454.3" font-family="Times,serif" font-size="14.00">create_timeslots</text>
<text text-anchor="start" x="350" y="-439.3" font-family="Times,serif" font-size="14.00">index</text>
<text text-anchor="start" x="350" y="-424.3" font-family="Times,serif" font-size="14.00">new</text>
<text text-anchor="start" x="350" y="-409.3" font-family="Times,serif" font-size="14.00">new_timeslots</text>
<polyline fill="none" stroke="black" points="342,-401.5 475,-401.5 "/>
<polyline fill="none" stroke="black" points="342,-377.5 475,-377.5 "/>
<text text-anchor="start" x="350" y="-362.3" font-family="Times,serif" font-size="14.00">_layout</text>
<text text-anchor="start" x="350" y="-347.3" font-family="Times,serif" font-size="14.00">json_workshifts</text>
<text text-anchor="start" x="350" y="-332.3" font-family="Times,serif" font-size="14.00">workshift_params</text>
</g>
<!-- SignoffsController -->
<g id="node4" class="node"><title>SignoffsController</title>
<path fill="none" stroke="black" d="M12,-72.5C12,-72.5 106,-72.5 106,-72.5 112,-72.5 118,-78.5 118,-84.5 118,-84.5 118,-198.5 118,-198.5 118,-204.5 112,-210.5 106,-210.5 106,-210.5 12,-210.5 12,-210.5 6,-210.5 0,-204.5 0,-198.5 0,-198.5 0,-84.5 0,-84.5 0,-78.5 6,-72.5 12,-72.5"/>
<text text-anchor="middle" x="59" y="-195.3" font-family="Times,serif" font-size="14.00">SignoffsController</text>
<polyline fill="none" stroke="black" points="0,-187.5 118,-187.5 "/>
<text text-anchor="start" x="8" y="-172.3" font-family="Times,serif" font-size="14.00">get_shifts</text>
<text text-anchor="start" x="8" y="-157.3" font-family="Times,serif" font-size="14.00">get_unit</text>
<text text-anchor="start" x="8" y="-142.3" font-family="Times,serif" font-size="14.00">new</text>
<text text-anchor="start" x="8" y="-127.3" font-family="Times,serif" font-size="14.00">set_unit</text>
<polyline fill="none" stroke="black" points="0,-119.5 118,-119.5 "/>
<polyline fill="none" stroke="black" points="0,-95.5 118,-95.5 "/>
<text text-anchor="start" x="8" y="-80.3" font-family="Times,serif" font-size="14.00">_layout</text>
</g>
<!-- ShiftsController -->
<g id="node5" class="node"><title>ShiftsController</title>
<path fill="none" stroke="black" d="M210,-414.5C210,-414.5 290,-414.5 290,-414.5 296,-414.5 302,-420.5 302,-426.5 302,-426.5 302,-615.5 302,-615.5 302,-621.5 296,-627.5 290,-627.5 290,-627.5 210,-627.5 210,-627.5 204,-627.5 198,-621.5 198,-615.5 198,-615.5 198,-426.5 198,-426.5 198,-420.5 204,-414.5 210,-414.5"/>
<text text-anchor="middle" x="250" y="-612.3" font-family="Times,serif" font-size="14.00">ShiftsController</text>
<polyline fill="none" stroke="black" points="198,-604.5 302,-604.5 "/>
<text text-anchor="start" x="206" y="-589.3" font-family="Times,serif" font-size="14.00">change_users</text>
<text text-anchor="start" x="206" y="-574.3" font-family="Times,serif" font-size="14.00">destroy</text>
<text text-anchor="start" x="206" y="-559.3" font-family="Times,serif" font-size="14.00">edit</text>
<text text-anchor="start" x="206" y="-544.3" font-family="Times,serif" font-size="14.00">index</text>
<text text-anchor="start" x="206" y="-529.3" font-family="Times,serif" font-size="14.00">new</text>
<text text-anchor="start" x="206" y="-514.3" font-family="Times,serif" font-size="14.00">show</text>
<text text-anchor="start" x="206" y="-499.3" font-family="Times,serif" font-size="14.00">update</text>
<polyline fill="none" stroke="black" points="198,-491.5 302,-491.5 "/>
<polyline fill="none" stroke="black" points="198,-467.5 302,-467.5 "/>
<text text-anchor="start" x="206" y="-452.3" font-family="Times,serif" font-size="14.00">_layout</text>
<text text-anchor="start" x="206" y="-437.3" font-family="Times,serif" font-size="14.00">json_shifts</text>
<text text-anchor="start" x="206" y="-422.3" font-family="Times,serif" font-size="14.00">shift_params</text>
</g>
<!-- PoliciesController -->
<g id="node6" class="node"><title>PoliciesController</title>
<path fill="none" stroke="black" d="M66,-414.5C66,-414.5 157,-414.5 157,-414.5 163,-414.5 169,-420.5 169,-426.5 169,-426.5 169,-585.5 169,-585.5 169,-591.5 163,-597.5 157,-597.5 157,-597.5 66,-597.5 66,-597.5 60,-597.5 54,-591.5 54,-585.5 54,-585.5 54,-426.5 54,-426.5 54,-420.5 60,-414.5 66,-414.5"/>
<text text-anchor="middle" x="111.5" y="-582.3" font-family="Times,serif" font-size="14.00">PoliciesController</text>
<polyline fill="none" stroke="black" points="54,-574.5 169,-574.5 "/>
<text text-anchor="start" x="62" y="-559.3" font-family="Times,serif" font-size="14.00">create</text>
<text text-anchor="start" x="62" y="-544.3" font-family="Times,serif" font-size="14.00">edit</text>
<text text-anchor="start" x="62" y="-529.3" font-family="Times,serif" font-size="14.00">new</text>
<text text-anchor="start" x="62" y="-514.3" font-family="Times,serif" font-size="14.00">show</text>
<text text-anchor="start" x="62" y="-499.3" font-family="Times,serif" font-size="14.00">update</text>
<polyline fill="none" stroke="black" points="54,-491.5 169,-491.5 "/>
<polyline fill="none" stroke="black" points="54,-467.5 169,-467.5 "/>
<text text-anchor="start" x="62" y="-452.3" font-family="Times,serif" font-size="14.00">_layout</text>
<text text-anchor="start" x="62" y="-437.3" font-family="Times,serif" font-size="14.00">policy_params</text>
<text text-anchor="start" x="62" y="-422.3" font-family="Times,serif" font-size="14.00">set_policy</text>
</g>
<!-- SessionsController -->
<g id="node7" class="node"><title>SessionsController</title>
<path fill="none" stroke="black" d="M516,-324.5C516,-324.5 611,-324.5 611,-324.5 617,-324.5 623,-330.5 623,-336.5 623,-336.5 623,-450.5 623,-450.5 623,-456.5 617,-462.5 611,-462.5 611,-462.5 516,-462.5 516,-462.5 510,-462.5 504,-456.5 504,-450.5 504,-450.5 504,-336.5 504,-336.5 504,-330.5 510,-324.5 516,-324.5"/>
<text text-anchor="middle" x="563.5" y="-447.3" font-family="Times,serif" font-size="14.00">SessionsController</text>
<polyline fill="none" stroke="black" points="504,-439.5 623,-439.5 "/>
<text text-anchor="start" x="512" y="-424.3" font-family="Times,serif" font-size="14.00">create</text>
<text text-anchor="start" x="512" y="-409.3" font-family="Times,serif" font-size="14.00">destroy</text>
<text text-anchor="start" x="512" y="-394.3" font-family="Times,serif" font-size="14.00">failure</text>
<text text-anchor="start" x="512" y="-379.3" font-family="Times,serif" font-size="14.00">new</text>
<polyline fill="none" stroke="black" points="504,-371.5 623,-371.5 "/>
<polyline fill="none" stroke="black" points="504,-347.5 623,-347.5 "/>
<text text-anchor="start" x="512" y="-332.3" font-family="Times,serif" font-size="14.00">_layout</text>
</g>
<!-- ApplicationController -->
<g id="node8" class="node"><title>ApplicationController</title>
<path fill="none" stroke="black" d="M354,-108.5C354,-108.5 466,-108.5 466,-108.5 472,-108.5 478,-114.5 478,-120.5 478,-120.5 478,-279.5 478,-279.5 478,-285.5 472,-291.5 466,-291.5 466,-291.5 354,-291.5 354,-291.5 348,-291.5 342,-285.5 342,-279.5 342,-279.5 342,-120.5 342,-120.5 342,-114.5 348,-108.5 354,-108.5"/>
<text text-anchor="middle" x="410" y="-276.3" font-family="Times,serif" font-size="14.00">ApplicationController</text>
<polyline fill="none" stroke="black" points="342,-268.5 478,-268.5 "/>
<polyline fill="none" stroke="black" points="342,-244.5 478,-244.5 "/>
<text text-anchor="start" x="350" y="-229.3" font-family="Times,serif" font-size="14.00">admin_rights?</text>
<text text-anchor="start" x="350" y="-214.3" font-family="Times,serif" font-size="14.00">authorize</text>
<text text-anchor="start" x="350" y="-199.3" font-family="Times,serif" font-size="14.00">convert_to_id</text>
<text text-anchor="start" x="350" y="-184.3" font-family="Times,serif" font-size="14.00">convert_to_time</text>
<text text-anchor="start" x="350" y="-169.3" font-family="Times,serif" font-size="14.00">current_unit</text>
<text text-anchor="start" x="350" y="-154.3" font-family="Times,serif" font-size="14.00">current_user</text>
<text text-anchor="start" x="350" y="-139.3" font-family="Times,serif" font-size="14.00">set_current_user</text>
<polyline fill="none" stroke="black" points="342,-131.5 478,-131.5 "/>
<text text-anchor="start" x="350" y="-116.3" font-family="Times,serif" font-size="14.00">_layout</text>
</g>
<!-- UsersController -->
<g id="node9" class="node"><title>UsersController</title>
<path fill="none" stroke="black" d="M174,-18.5C174,-18.5 290,-18.5 290,-18.5 296,-18.5 302,-24.5 302,-30.5 302,-30.5 302,-369.5 302,-369.5 302,-375.5 296,-381.5 290,-381.5 290,-381.5 174,-381.5 174,-381.5 168,-381.5 162,-375.5 162,-369.5 162,-369.5 162,-30.5 162,-30.5 162,-24.5 168,-18.5 174,-18.5"/>
<text text-anchor="middle" x="232" y="-366.3" font-family="Times,serif" font-size="14.00">UsersController</text>
<polyline fill="none" stroke="black" points="162,-358.5 302,-358.5 "/>
<text text-anchor="start" x="170" y="-343.3" font-family="Times,serif" font-size="14.00">add_user</text>
<text text-anchor="start" x="170" y="-328.3" font-family="Times,serif" font-size="14.00">confirm_users</text>
<text text-anchor="start" x="170" y="-313.3" font-family="Times,serif" font-size="14.00">create</text>
<text text-anchor="start" x="170" y="-298.3" font-family="Times,serif" font-size="14.00">create_pref_and_avail</text>
<text text-anchor="start" x="170" y="-283.3" font-family="Times,serif" font-size="14.00">edit</text>
<text text-anchor="start" x="170" y="-268.3" font-family="Times,serif" font-size="14.00">edit_email</text>
<text text-anchor="start" x="170" y="-253.3" font-family="Times,serif" font-size="14.00">edit_password</text>
<text text-anchor="start" x="170" y="-238.3" font-family="Times,serif" font-size="14.00">edit_preferences</text>
<text text-anchor="start" x="170" y="-223.3" font-family="Times,serif" font-size="14.00">get_all</text>
<text text-anchor="start" x="170" y="-208.3" font-family="Times,serif" font-size="14.00">new</text>
<text text-anchor="start" x="170" y="-193.3" font-family="Times,serif" font-size="14.00">new_preferences</text>
<text text-anchor="start" x="170" y="-178.3" font-family="Times,serif" font-size="14.00">preference_access</text>
<text text-anchor="start" x="170" y="-163.3" font-family="Times,serif" font-size="14.00">show</text>
<text text-anchor="start" x="170" y="-148.3" font-family="Times,serif" font-size="14.00">update_pref_and_avail</text>
<text text-anchor="start" x="170" y="-133.3" font-family="Times,serif" font-size="14.00">upload</text>
<text text-anchor="start" x="170" y="-118.3" font-family="Times,serif" font-size="14.00">upload_avatar</text>
<polyline fill="none" stroke="black" points="162,-110.5 302,-110.5 "/>
<polyline fill="none" stroke="black" points="162,-86.5 302,-86.5 "/>
<text text-anchor="start" x="170" y="-71.3" font-family="Times,serif" font-size="14.00">_layout</text>
<text text-anchor="start" x="170" y="-56.3" font-family="Times,serif" font-size="14.00">get_current_uploaded</text>
<text text-anchor="start" x="170" y="-41.3" font-family="Times,serif" font-size="14.00">save_preferences</text>
<text text-anchor="start" x="170" y="-26.3" font-family="Times,serif" font-size="14.00">user_params</text>
</g>
</g>
</svg>
