<?xml version="1.0" encoding="UTF-8" standalone="no"?>
<!DOCTYPE svg PUBLIC "-//W3C//DTD SVG 1.1//EN"
 "http://www.w3.org/Graphics/SVG/1.1/DTD/svg11.dtd">
<!-- Generated by graphviz version 2.36.0 (20140111.2315)
 -->
<!-- Title: models_diagram Pages: 1 -->
<svg width="464pt" height="302pt"
 viewBox="0.00 0.00 464.00 302.00" xmlns="http://www.w3.org/2000/svg" xmlns:xlink="http://www.w3.org/1999/xlink">
<g id="graph0" class="graph" transform="scale(1 1) rotate(0) translate(4 298)">
<title>models_diagram</title>
<polygon fill="none" stroke="none" points="-4,4 -4,-298 460,-298 460,4 -4,4"/>
<!-- _diagram_info -->
<g id="node1" class="node"><title>_diagram_info</title>
<text text-anchor="start" x="8" y="-279.6" font-family="Times,serif" font-size="13.00">Models diagram</text>
<text text-anchor="start" x="8" y="-265.6" font-family="Times,serif" font-size="13.00">Date: Apr 25 2016 &#45; 04:14</text>
<text text-anchor="start" x="8" y="-251.6" font-family="Times,serif" font-size="13.00">Migration version: 20160425035754</text>
<text text-anchor="start" x="8" y="-237.6" font-family="Times,serif" font-size="13.00">Generated by RailRoady 1.4.2</text>
<text text-anchor="start" x="8" y="-223.6" font-family="Times,serif" font-size="13.00">http://railroady.prestonlee.com</text>
</g>
<!-- Policy -->
<g id="node2" class="node"><title>Policy</title>
<ellipse fill="none" stroke="black" cx="181" cy="-162" rx="33.2209" ry="18"/>
<text text-anchor="middle" x="181" y="-158.3" font-family="Times,serif" font-size="14.00">Policy</text>
</g>
<!-- Avail -->
<g id="node3" class="node"><title>Avail</title>
<ellipse fill="none" stroke="black" cx="162" cy="-90" rx="30.3206" ry="18"/>
<text text-anchor="middle" x="162" y="-86.3" font-family="Times,serif" font-size="14.00">Avail</text>
</g>
<!-- User -->
<g id="node4" class="node"><title>User</title>
<ellipse fill="none" stroke="black" cx="259" cy="-162" rx="26.949" ry="18"/>
<text text-anchor="middle" x="259" y="-158.3" font-family="Times,serif" font-size="14.00">User</text>
</g>
<!-- User&#45;&gt;Avail -->
<g id="edge4" class="edge"><title>User&#45;&gt;Avail</title>
<path fill="none" stroke="#60df8b" d="M234.393,-143.242C220.562,-133.261 203.276,-120.787 189.064,-110.53"/>
<ellipse fill="none" stroke="#60df8b" cx="237.965" cy="-145.82" rx="4.00002" ry="4.00002"/>
<polygon fill="#60df8b" stroke="#60df8b" points="188.779,-110.325 183.304,-100.824 184.725,-107.399 180.67,-104.473 180.67,-104.473 180.67,-104.473 184.725,-107.399 178.037,-108.122 188.779,-110.325 188.779,-110.325"/>
</g>
<!-- Preference -->
<g id="node5" class="node"><title>Preference</title>
<ellipse fill="none" stroke="black" cx="297" cy="-90" rx="48.1437" ry="18"/>
<text text-anchor="middle" x="297" y="-86.3" font-family="Times,serif" font-size="14.00">Preference</text>
</g>
<!-- User&#45;&gt;Preference -->
<g id="edge3" class="edge"><title>User&#45;&gt;Preference</title>
<path fill="none" stroke="#16fcb2" d="M271.652,-137.694C275.258,-131.05 279.21,-123.772 282.897,-116.979"/>
<ellipse fill="none" stroke="#16fcb2" cx="269.722" cy="-141.249" rx="4.00002" ry="4.00002"/>
<polygon fill="#16fcb2" stroke="#16fcb2" points="282.933,-116.912 291.659,-110.271 285.319,-112.518 287.704,-108.124 287.704,-108.124 287.704,-108.124 285.319,-112.518 283.749,-105.977 282.933,-116.912 282.933,-116.912"/>
</g>
<!-- Shift -->
<g id="node6" class="node"><title>Shift</title>
<ellipse fill="none" stroke="black" cx="315" cy="-18" rx="27.4223" ry="18"/>
<text text-anchor="middle" x="315" y="-14.3" font-family="Times,serif" font-size="14.00">Shift</text>
</g>
<!-- User&#45;&gt;Shift -->
<g id="edge1" class="edge"><title>User&#45;&gt;Shift</title>
<path fill="none" stroke="#2eb503" d="M245.791,-137.552C237.17,-118.909 229.32,-92.6243 240,-72 249.07,-54.4836 266.891,-41.5192 282.885,-32.7982"/>
<ellipse fill="none" stroke="#2eb503" cx="247.712" cy="-141.448" rx="4.00002" ry="4.00002"/>
<polygon fill="#2eb503" stroke="#2eb503" points="283.1,-32.6888 294.053,-32.1615 287.555,-30.4201 292.011,-28.1514 292.011,-28.1514 292.011,-28.1514 287.555,-30.4201 289.969,-24.1413 283.1,-32.6888 283.1,-32.6888"/>
</g>
<!-- Workshift -->
<g id="node8" class="node"><title>Workshift</title>
<ellipse fill="none" stroke="black" cx="410" cy="-90" rx="46.1964" ry="18"/>
<text text-anchor="middle" x="410" y="-86.3" font-family="Times,serif" font-size="14.00">Workshift</text>
</g>
<!-- User&#45;&gt;Workshift -->
<g id="edge2" class="edge"><title>User&#45;&gt;Workshift</title>
<path fill="none" stroke="#bab4da" d="M288.325,-147.124C290.582,-146.065 292.827,-145.014 295,-144 320.625,-132.045 349.531,-118.724 371.953,-108.427"/>
<ellipse fill="none" stroke="#bab4da" cx="284.306" cy="-149.016" rx="4.00002" ry="4.00002"/>
<polygon fill="#bab4da" stroke="#bab4da" points="372.048,-108.383 383.013,-108.302 376.592,-106.298 381.136,-104.212 381.136,-104.212 381.136,-104.212 376.592,-106.298 379.259,-100.122 372.048,-108.383 372.048,-108.383"/>
</g>
<!-- Metashift -->
<g id="node7" class="node"><title>Metashift</title>
<ellipse fill="none" stroke="black" cx="349" cy="-162" rx="44.271" ry="18"/>
<text text-anchor="middle" x="349" y="-158.3" font-family="Times,serif" font-size="14.00">Metashift</text>
</g>
<!-- Metashift&#45;&gt;Preference -->
<g id="edge6" class="edge"><title>Metashift&#45;&gt;Preference</title>
<path fill="none" stroke="#cf02f9" d="M331.775,-137.812C326.473,-130.675 320.62,-122.796 315.252,-115.57"/>
<ellipse fill="none" stroke="#cf02f9" cx="334.291" cy="-141.2" rx="4.00002" ry="4.00002"/>
<polygon fill="#cf02f9" stroke="#cf02f9" points="315.198,-115.497 312.847,-104.786 312.216,-111.484 309.235,-107.47 309.235,-107.47 309.235,-107.47 312.216,-111.484 305.622,-110.153 315.198,-115.497 315.198,-115.497"/>
</g>
<!-- Metashift&#45;&gt;Workshift -->
<g id="edge5" class="edge"><title>Metashift&#45;&gt;Workshift</title>
<path fill="none" stroke="#77169e" d="M368.653,-138.448C375.064,-131.091 382.21,-122.89 388.734,-115.403"/>
<ellipse fill="none" stroke="#77169e" cx="365.776" cy="-141.749" rx="4.00002" ry="4.00002"/>
<polygon fill="#77169e" stroke="#77169e" points="388.935,-115.173 398.898,-110.59 392.22,-111.403 395.505,-107.633 395.505,-107.633 395.505,-107.633 392.22,-111.403 392.113,-104.677 388.935,-115.173 388.935,-115.173"/>
</g>
<!-- Workshift&#45;&gt;Shift -->
<g id="edge7" class="edge"><title>Workshift&#45;&gt;Shift</title>
<path fill="none" stroke="#77381f" d="M382.753,-68.923C369.554,-59.198 353.79,-47.5818 340.789,-38.0025"/>
<ellipse fill="none" stroke="#77381f" cx="386.166" cy="-71.4382" rx="4.00002" ry="4.00002"/>
<polygon fill="#77381f" stroke="#77381f" points="340.751,-37.9741 335.369,-28.4193 336.725,-35.0081 332.7,-32.0421 332.7,-32.0421 332.7,-32.0421 336.725,-35.0081 330.031,-35.6648 340.751,-37.9741 340.751,-37.9741"/>
</g>
<!-- Unit -->
<g id="node9" class="node"><title>Unit</title>
<ellipse fill="none" stroke="black" cx="259" cy="-255" rx="27" ry="18"/>
<text text-anchor="middle" x="259" y="-251.3" font-family="Times,serif" font-size="14.00">Unit</text>
</g>
<!-- Unit&#45;&gt;Policy -->
<g id="edge8" class="edge"><title>Unit&#45;&gt;Policy</title>
<path fill="none" stroke="#200a30" d="M240.771,-232.733C228.468,-218.379 212.27,-199.482 199.841,-184.981"/>
<ellipse fill="none" stroke="#200a30" cx="243.517" cy="-235.936" rx="4.00002" ry="4.00002"/>
<ellipse fill="#200a30" stroke="#200a30" cx="197.026" cy="-181.697" rx="4.00002" ry="4.00002"/>
</g>
<!-- Unit&#45;&gt;User -->
<g id="edge9" class="edge"><title>Unit&#45;&gt;User</title>
<path fill="none" stroke="#d09da3" d="M259,-228.729C259,-216.725 259,-202.362 259,-190.129"/>
<ellipse fill="none" stroke="#d09da3" cx="259" cy="-232.884" rx="4" ry="4"/>
<polygon fill="#d09da3" stroke="#d09da3" points="259,-190.04 263.5,-180.04 259,-185.04 259,-180.04 259,-180.04 259,-180.04 259,-185.04 254.5,-180.04 259,-190.04 259,-190.04"/>
</g>
<!-- Unit&#45;&gt;Metashift -->
<g id="edge10" class="edge"><title>Unit&#45;&gt;Metashift</title>
<path fill="none" stroke="#ceabf5" d="M279.145,-233.631C293.007,-219.615 311.453,-200.965 325.908,-186.348"/>
<ellipse fill="none" stroke="#ceabf5" cx="276.273" cy="-236.535" rx="4.00002" ry="4.00002"/>
<polygon fill="#ceabf5" stroke="#ceabf5" points="326.027,-186.228 336.258,-182.283 329.543,-182.673 333.059,-179.118 333.059,-179.118 333.059,-179.118 329.543,-182.673 329.859,-175.954 326.027,-186.228 326.027,-186.228"/>
</g>
</g>
</svg>
