<?xml version="1.0" encoding="UTF-8" standalone="no"?>
<!DOCTYPE svg PUBLIC "-//W3C//DTD SVG 1.1//EN"
 "http://www.w3.org/Graphics/SVG/1.1/DTD/svg11.dtd">
<!-- Generated by graphviz version 2.36.0 (20140111.2315)
 -->
<!-- Title: models_diagram Pages: 1 -->
<svg width="578pt" height="846pt"
 viewBox="0.00 0.00 578.00 846.00" xmlns="http://www.w3.org/2000/svg" xmlns:xlink="http://www.w3.org/1999/xlink">
<g id="graph0" class="graph" transform="scale(1 1) rotate(0) translate(4 842)">
<title>models_diagram</title>
<polygon fill="none" stroke="none" points="-4,4 -4,-842 574,-842 574,4 -4,4"/>
<!-- _diagram_info -->
<g id="node1" class="node"><title>_diagram_info</title>
<text text-anchor="start" x="8" y="-816.6" font-family="Times,serif" font-size="13.00">Models diagram</text>
<text text-anchor="start" x="8" y="-802.6" font-family="Times,serif" font-size="13.00">Date: Apr 25 2016 &#45; 04:14</text>
<text text-anchor="start" x="8" y="-788.6" font-family="Times,serif" font-size="13.00">Migration version: 20160425035754</text>
<text text-anchor="start" x="8" y="-774.6" font-family="Times,serif" font-size="13.00">Generated by RailRoady 1.4.2</text>
<text text-anchor="start" x="8" y="-760.6" font-family="Times,serif" font-size="13.00">http://railroady.prestonlee.com</text>
</g>
<!-- Policy -->
<g id="node2" class="node"><title>Policy</title>
<path fill="none" stroke="black" d="M59,-461C59,-461 181,-461 181,-461 187,-461 193,-467 193,-473 193,-473 193,-615 193,-615 193,-621 187,-627 181,-627 181,-627 59,-627 59,-627 53,-627 47,-621 47,-615 47,-615 47,-473 47,-473 47,-467 53,-461 59,-461"/>
<text text-anchor="middle" x="120" y="-611.8" font-family="Times,serif" font-size="14.00">Policy</text>
<polyline fill="none" stroke="black" points="47,-604 193,-604 "/>
<text text-anchor="start" x="55" y="-588.8" font-family="Times,serif" font-size="14.00">id :INTEGER</text>
<text text-anchor="start" x="55" y="-573.8" font-family="Times,serif" font-size="14.00">first_day :datetime</text>
<text text-anchor="start" x="55" y="-558.8" font-family="Times,serif" font-size="14.00">last_day :datetime</text>
<text text-anchor="start" x="55" y="-543.8" font-family="Times,serif" font-size="14.00">fine_amount :integer</text>
<text text-anchor="start" x="55" y="-528.8" font-family="Times,serif" font-size="14.00">fine_days :text</text>
<text text-anchor="start" x="55" y="-513.8" font-family="Times,serif" font-size="14.00">market_sell_by :integer</text>
<text text-anchor="start" x="55" y="-498.8" font-family="Times,serif" font-size="14.00">created_at :datetime</text>
<text text-anchor="start" x="55" y="-483.8" font-family="Times,serif" font-size="14.00">updated_at :datetime</text>
<text text-anchor="start" x="55" y="-468.8" font-family="Times,serif" font-size="14.00">unit_id :integer</text>
</g>
<!-- Avail -->
<g id="node3" class="node"><title>Avail</title>
<path fill="none" stroke="black" d="M114.5,-205C114.5,-205 221.5,-205 221.5,-205 227.5,-205 233.5,-211 233.5,-217 233.5,-217 233.5,-329 233.5,-329 233.5,-335 227.5,-341 221.5,-341 221.5,-341 114.5,-341 114.5,-341 108.5,-341 102.5,-335 102.5,-329 102.5,-329 102.5,-217 102.5,-217 102.5,-211 108.5,-205 114.5,-205"/>
<text text-anchor="middle" x="168" y="-325.8" font-family="Times,serif" font-size="14.00">Avail</text>
<polyline fill="none" stroke="black" points="102.5,-318 233.5,-318 "/>
<text text-anchor="start" x="110.5" y="-302.8" font-family="Times,serif" font-size="14.00">id :INTEGER</text>
<text text-anchor="start" x="110.5" y="-287.8" font-family="Times,serif" font-size="14.00">day :integer</text>
<text text-anchor="start" x="110.5" y="-272.8" font-family="Times,serif" font-size="14.00">hour :integer</text>
<text text-anchor="start" x="110.5" y="-257.8" font-family="Times,serif" font-size="14.00">user_id :integer</text>
<text text-anchor="start" x="110.5" y="-242.8" font-family="Times,serif" font-size="14.00">status :varchar</text>
<text text-anchor="start" x="110.5" y="-227.8" font-family="Times,serif" font-size="14.00">created_at :datetime</text>
<text text-anchor="start" x="110.5" y="-212.8" font-family="Times,serif" font-size="14.00">updated_at :datetime</text>
</g>
<!-- User -->
<g id="node4" class="node"><title>User</title>
<path fill="none" stroke="black" d="M223,-378.5C223,-378.5 373,-378.5 373,-378.5 379,-378.5 385,-384.5 385,-390.5 385,-390.5 385,-697.5 385,-697.5 385,-703.5 379,-709.5 373,-709.5 373,-709.5 223,-709.5 223,-709.5 217,-709.5 211,-703.5 211,-697.5 211,-697.5 211,-390.5 211,-390.5 211,-384.5 217,-378.5 223,-378.5"/>
<text text-anchor="middle" x="298" y="-694.3" font-family="Times,serif" font-size="14.00">User</text>
<polyline fill="none" stroke="black" points="211,-686.5 385,-686.5 "/>
<text text-anchor="start" x="219" y="-671.3" font-family="Times,serif" font-size="14.00">id :INTEGER</text>
<text text-anchor="start" x="219" y="-656.3" font-family="Times,serif" font-size="14.00">first_name :varchar</text>
<text text-anchor="start" x="219" y="-641.3" font-family="Times,serif" font-size="14.00">last_name :varchar</text>
<text text-anchor="start" x="219" y="-626.3" font-family="Times,serif" font-size="14.00">email :varchar</text>
<text text-anchor="start" x="219" y="-611.3" font-family="Times,serif" font-size="14.00">permissions :integer</text>
<text text-anchor="start" x="219" y="-596.3" font-family="Times,serif" font-size="14.00">created_at :datetime</text>
<text text-anchor="start" x="219" y="-581.3" font-family="Times,serif" font-size="14.00">updated_at :datetime</text>
<text text-anchor="start" x="219" y="-566.3" font-family="Times,serif" font-size="14.00">password_digest :varchar</text>
<text text-anchor="start" x="219" y="-551.3" font-family="Times,serif" font-size="14.00">sent_confirmation :boolean</text>
<text text-anchor="start" x="219" y="-536.3" font-family="Times,serif" font-size="14.00">has_confirmed :boolean</text>
<text text-anchor="start" x="219" y="-521.3" font-family="Times,serif" font-size="14.00">hour_balance :integer</text>
<text text-anchor="start" x="219" y="-506.3" font-family="Times,serif" font-size="14.00">fine_balance :integer</text>
<text text-anchor="start" x="219" y="-491.3" font-family="Times,serif" font-size="14.00">unit_id :integer</text>
<text text-anchor="start" x="219" y="-476.3" font-family="Times,serif" font-size="14.00">avatar_file_name :varchar</text>
<text text-anchor="start" x="219" y="-461.3" font-family="Times,serif" font-size="14.00">avatar_content_type :varchar</text>
<text text-anchor="start" x="219" y="-446.3" font-family="Times,serif" font-size="14.00">avatar_file_size :integer</text>
<text text-anchor="start" x="219" y="-431.3" font-family="Times,serif" font-size="14.00">avatar_updated_at :datetime</text>
<text text-anchor="start" x="219" y="-416.3" font-family="Times,serif" font-size="14.00">preference_open :boolean</text>
<text text-anchor="start" x="219" y="-401.3" font-family="Times,serif" font-size="14.00">notes :varchar</text>
<text text-anchor="start" x="219" y="-386.3" font-family="Times,serif" font-size="14.00">compensated_hours :integer</text>
</g>
<!-- User&#45;&gt;Avail -->
<g id="edge4" class="edge"><title>User&#45;&gt;Avail</title>
<path fill="none" stroke="#07d5df" d="M214.941,-371.132C211.482,-363.974 208.097,-356.97 204.83,-350.21"/>
<ellipse fill="none" stroke="#07d5df" cx="216.707" cy="-374.786" rx="4.00002" ry="4.00002"/>
<polygon fill="#07d5df" stroke="#07d5df" points="204.803,-350.154 204.503,-339.192 202.627,-345.652 200.452,-341.15 200.452,-341.15 200.452,-341.15 202.627,-345.652 196.4,-343.108 204.803,-350.154 204.803,-350.154"/>
</g>
<!-- Preference -->
<g id="node5" class="node"><title>Preference</title>
<path fill="none" stroke="black" d="M302.5,-205C302.5,-205 409.5,-205 409.5,-205 415.5,-205 421.5,-211 421.5,-217 421.5,-217 421.5,-329 421.5,-329 421.5,-335 415.5,-341 409.5,-341 409.5,-341 302.5,-341 302.5,-341 296.5,-341 290.5,-335 290.5,-329 290.5,-329 290.5,-217 290.5,-217 290.5,-211 296.5,-205 302.5,-205"/>
<text text-anchor="middle" x="356" y="-325.8" font-family="Times,serif" font-size="14.00">Preference</text>
<polyline fill="none" stroke="black" points="290.5,-318 421.5,-318 "/>
<text text-anchor="start" x="298.5" y="-302.8" font-family="Times,serif" font-size="14.00">id :INTEGER</text>
<text text-anchor="start" x="298.5" y="-287.8" font-family="Times,serif" font-size="14.00">user_id :integer</text>
<text text-anchor="start" x="298.5" y="-272.8" font-family="Times,serif" font-size="14.00">metashift_id :integer</text>
<text text-anchor="start" x="298.5" y="-257.8" font-family="Times,serif" font-size="14.00">rating :integer</text>
<text text-anchor="start" x="298.5" y="-242.8" font-family="Times,serif" font-size="14.00">created_at :datetime</text>
<text text-anchor="start" x="298.5" y="-227.8" font-family="Times,serif" font-size="14.00">updated_at :datetime</text>
<text text-anchor="start" x="298.5" y="-212.8" font-family="Times,serif" font-size="14.00">cat_rating :integer</text>
</g>
<!-- User&#45;&gt;Preference -->
<g id="edge3" class="edge"><title>User&#45;&gt;Preference</title>
<path fill="none" stroke="#2aa957" d="M335.187,-370.531C336.63,-363.839 338.043,-357.283 339.411,-350.937"/>
<ellipse fill="none" stroke="#2aa957" cx="334.336" cy="-374.477" rx="4.00001" ry="4.00001"/>
<polygon fill="#2aa957" stroke="#2aa957" points="339.414,-350.926 345.92,-342.099 340.468,-346.038 341.521,-341.15 341.521,-341.15 341.521,-341.15 340.468,-346.038 337.123,-340.202 339.414,-350.926 339.414,-350.926"/>
</g>
<!-- Shift -->
<g id="node6" class="node"><title>Shift</title>
<path fill="none" stroke="black" d="M325.5,-1C325.5,-1 440.5,-1 440.5,-1 446.5,-1 452.5,-7 452.5,-13 452.5,-13 452.5,-155 452.5,-155 452.5,-161 446.5,-167 440.5,-167 440.5,-167 325.5,-167 325.5,-167 319.5,-167 313.5,-161 313.5,-155 313.5,-155 313.5,-13 313.5,-13 313.5,-7 319.5,-1 325.5,-1"/>
<text text-anchor="middle" x="383" y="-151.8" font-family="Times,serif" font-size="14.00">Shift</text>
<polyline fill="none" stroke="black" points="313.5,-144 452.5,-144 "/>
<text text-anchor="start" x="321.5" y="-128.8" font-family="Times,serif" font-size="14.00">id :INTEGER</text>
<text text-anchor="start" x="321.5" y="-113.8" font-family="Times,serif" font-size="14.00">created_at :datetime</text>
<text text-anchor="start" x="321.5" y="-98.8" font-family="Times,serif" font-size="14.00">updated_at :datetime</text>
<text text-anchor="start" x="321.5" y="-83.8" font-family="Times,serif" font-size="14.00">user_id :integer</text>
<text text-anchor="start" x="321.5" y="-68.8" font-family="Times,serif" font-size="14.00">date :datetime</text>
<text text-anchor="start" x="321.5" y="-53.8" font-family="Times,serif" font-size="14.00">completed :boolean</text>
<text text-anchor="start" x="321.5" y="-38.8" font-family="Times,serif" font-size="14.00">signoff_by_id :integer</text>
<text text-anchor="start" x="321.5" y="-23.8" font-family="Times,serif" font-size="14.00">signoff_date :datetime</text>
<text text-anchor="start" x="321.5" y="-8.8" font-family="Times,serif" font-size="14.00">workshift_id :integer</text>
</g>
<!-- User&#45;&gt;Shift -->
<g id="edge1" class="edge"><title>User&#45;&gt;Shift</title>
<path fill="none" stroke="#5a8944" d="M263.121,-370.176C258.962,-315.611 261.757,-256.019 281,-204 286.998,-187.787 296.3,-172.292 306.899,-158.157"/>
<ellipse fill="none" stroke="#5a8944" cx="263.454" cy="-374.203" rx="4" ry="4"/>
<polygon fill="#5a8944" stroke="#5a8944" points="307.117,-157.877 316.819,-152.767 310.195,-153.937 313.273,-149.997 313.273,-149.997 313.273,-149.997 310.195,-153.937 309.727,-147.227 307.117,-157.877 307.117,-157.877"/>
</g>
<!-- Workshift -->
<g id="node8" class="node"><title>Workshift</title>
<path fill="none" stroke="black" d="M452,-205C452,-205 558,-205 558,-205 564,-205 570,-211 570,-217 570,-217 570,-329 570,-329 570,-335 564,-341 558,-341 558,-341 452,-341 452,-341 446,-341 440,-335 440,-329 440,-329 440,-217 440,-217 440,-211 446,-205 452,-205"/>
<text text-anchor="middle" x="505" y="-325.8" font-family="Times,serif" font-size="14.00">Workshift</text>
<polyline fill="none" stroke="black" points="440,-318 570,-318 "/>
<text text-anchor="start" x="448" y="-302.8" font-family="Times,serif" font-size="14.00">id :INTEGER</text>
<text text-anchor="start" x="448" y="-287.8" font-family="Times,serif" font-size="14.00">metashift_id :integer</text>
<text text-anchor="start" x="448" y="-272.8" font-family="Times,serif" font-size="14.00">start_time :varchar</text>
<text text-anchor="start" x="448" y="-257.8" font-family="Times,serif" font-size="14.00">end_time :varchar</text>
<text text-anchor="start" x="448" y="-242.8" font-family="Times,serif" font-size="14.00">day :varchar</text>
<text text-anchor="start" x="448" y="-227.8" font-family="Times,serif" font-size="14.00">user_id :integer</text>
<text text-anchor="start" x="448" y="-212.8" font-family="Times,serif" font-size="14.00">length :decimal</text>
</g>
<!-- User&#45;&gt;Workshift -->
<g id="edge2" class="edge"><title>User&#45;&gt;Workshift</title>
<path fill="none" stroke="#17e3ee" d="M390.09,-382.992C391.387,-381.309 392.69,-379.645 394,-378 397.848,-373.167 413.715,-357.971 432.299,-340.634"/>
<ellipse fill="none" stroke="#17e3ee" cx="387.532" cy="-386.374" rx="4.00002" ry="4.00002"/>
<polygon fill="#17e3ee" stroke="#17e3ee" points="432.5,-340.447 442.887,-336.93 436.161,-337.041 439.822,-333.636 439.822,-333.636 439.822,-333.636 436.161,-337.041 436.757,-330.341 432.5,-340.447 432.5,-340.447"/>
</g>
<!-- Metashift -->
<g id="node7" class="node"><title>Metashift</title>
<path fill="none" stroke="black" d="M415.5,-468.5C415.5,-468.5 522.5,-468.5 522.5,-468.5 528.5,-468.5 534.5,-474.5 534.5,-480.5 534.5,-480.5 534.5,-607.5 534.5,-607.5 534.5,-613.5 528.5,-619.5 522.5,-619.5 522.5,-619.5 415.5,-619.5 415.5,-619.5 409.5,-619.5 403.5,-613.5 403.5,-607.5 403.5,-607.5 403.5,-480.5 403.5,-480.5 403.5,-474.5 409.5,-468.5 415.5,-468.5"/>
<text text-anchor="middle" x="469" y="-604.3" font-family="Times,serif" font-size="14.00">Metashift</text>
<polyline fill="none" stroke="black" points="403.5,-596.5 534.5,-596.5 "/>
<text text-anchor="start" x="411.5" y="-581.3" font-family="Times,serif" font-size="14.00">id :INTEGER</text>
<text text-anchor="start" x="411.5" y="-566.3" font-family="Times,serif" font-size="14.00">category :varchar</text>
<text text-anchor="start" x="411.5" y="-551.3" font-family="Times,serif" font-size="14.00">description :varchar</text>
<text text-anchor="start" x="411.5" y="-536.3" font-family="Times,serif" font-size="14.00">multiplier :float</text>
<text text-anchor="start" x="411.5" y="-521.3" font-family="Times,serif" font-size="14.00">created_at :datetime</text>
<text text-anchor="start" x="411.5" y="-506.3" font-family="Times,serif" font-size="14.00">updated_at :datetime</text>
<text text-anchor="start" x="411.5" y="-491.3" font-family="Times,serif" font-size="14.00">name :varchar</text>
<text text-anchor="start" x="411.5" y="-476.3" font-family="Times,serif" font-size="14.00">unit_id :integer</text>
</g>
<!-- Metashift&#45;&gt;Preference -->
<g id="edge6" class="edge"><title>Metashift&#45;&gt;Preference</title>
<path fill="none" stroke="#671228" d="M434.497,-460.864C419.798,-425.874 402.746,-385.281 388.298,-350.886"/>
<ellipse fill="none" stroke="#671228" cx="436.124" cy="-464.738" rx="4.00002" ry="4.00002"/>
<polygon fill="#671228" stroke="#671228" points="388.169,-350.579 388.445,-339.617 386.232,-345.969 384.296,-341.359 384.296,-341.359 384.296,-341.359 386.232,-345.969 380.147,-343.102 388.169,-350.579 388.169,-350.579"/>
</g>
<!-- Metashift&#45;&gt;Workshift -->
<g id="edge5" class="edge"><title>Metashift&#45;&gt;Workshift</title>
<path fill="none" stroke="#9f7a4a" d="M480.056,-460.385C484.706,-425.639 490.086,-385.438 494.657,-351.285"/>
<ellipse fill="none" stroke="#9f7a4a" cx="479.511" cy="-464.461" rx="4.00001" ry="4.00001"/>
<polygon fill="#9f7a4a" stroke="#9f7a4a" points="494.659,-351.271 500.446,-341.956 495.322,-346.315 495.985,-341.359 495.985,-341.359 495.985,-341.359 495.322,-346.315 491.525,-340.762 494.659,-351.271 494.659,-351.271"/>
</g>
<!-- Workshift&#45;&gt;Shift -->
<g id="edge7" class="edge"><title>Workshift&#45;&gt;Shift</title>
<path fill="none" stroke="#c967b2" d="M456.63,-197.859C451.923,-190.644 447.11,-183.267 442.312,-175.913"/>
<ellipse fill="none" stroke="#c967b2" cx="458.942" cy="-201.403" rx="4.00002" ry="4.00002"/>
<polygon fill="#c967b2" stroke="#c967b2" points="442.157,-175.675 440.462,-164.841 439.425,-171.487 436.693,-167.299 436.693,-167.299 436.693,-167.299 439.425,-171.487 432.924,-169.758 442.157,-175.675 442.157,-175.675"/>
</g>
<!-- Unit -->
<g id="node9" class="node"><title>Unit</title>
<path fill="none" stroke="black" d="M244.5,-746.5C244.5,-746.5 351.5,-746.5 351.5,-746.5 357.5,-746.5 363.5,-752.5 363.5,-758.5 363.5,-758.5 363.5,-825.5 363.5,-825.5 363.5,-831.5 357.5,-837.5 351.5,-837.5 351.5,-837.5 244.5,-837.5 244.5,-837.5 238.5,-837.5 232.5,-831.5 232.5,-825.5 232.5,-825.5 232.5,-758.5 232.5,-758.5 232.5,-752.5 238.5,-746.5 244.5,-746.5"/>
<text text-anchor="middle" x="298" y="-822.3" font-family="Times,serif" font-size="14.00">Unit</text>
<polyline fill="none" stroke="black" points="232.5,-814.5 363.5,-814.5 "/>
<text text-anchor="start" x="240.5" y="-799.3" font-family="Times,serif" font-size="14.00">id :INTEGER</text>
<text text-anchor="start" x="240.5" y="-784.3" font-family="Times,serif" font-size="14.00">name :varchar</text>
<text text-anchor="start" x="240.5" y="-769.3" font-family="Times,serif" font-size="14.00">created_at :datetime</text>
<text text-anchor="start" x="240.5" y="-754.3" font-family="Times,serif" font-size="14.00">updated_at :datetime</text>
</g>
<!-- Unit&#45;&gt;Policy -->
<g id="edge8" class="edge"><title>Unit&#45;&gt;Policy</title>
<path fill="none" stroke="#cc00af" d="M231.102,-740.779C220.642,-731.236 210.499,-720.825 202,-710 184.291,-687.443 168.929,-660.45 156.442,-634.894"/>
<ellipse fill="none" stroke="#cc00af" cx="234.302" cy="-743.632" rx="4.00002" ry="4.00002"/>
<ellipse fill="#cc00af" stroke="#cc00af" cx="154.561" cy="-630.979" rx="4.00002" ry="4.00002"/>
</g>
<!-- Unit&#45;&gt;User -->
<g id="edge9" class="edge"><title>Unit&#45;&gt;User</title>
<path fill="none" stroke="#315179" d="M298,-738.432C298,-732.544 298,-726.331 298,-719.885"/>
<ellipse fill="none" stroke="#315179" cx="298" cy="-742.451" rx="4" ry="4"/>
<polygon fill="#315179" stroke="#315179" points="298,-719.577 302.5,-709.577 298,-714.577 298,-709.577 298,-709.577 298,-709.577 298,-714.577 293.5,-709.577 298,-719.577 298,-719.577"/>
</g>
<!-- Unit&#45;&gt;Metashift -->
<g id="edge10" class="edge"><title>Unit&#45;&gt;Metashift</title>
<path fill="none" stroke="#03015a" d="M365.426,-740.836C375.775,-731.316 385.745,-720.898 394,-710 412.356,-685.768 427.538,-656.327 439.329,-629.059"/>
<ellipse fill="none" stroke="#03015a" cx="362.276" cy="-743.663" rx="4.00002" ry="4.00002"/>
<polygon fill="#03015a" stroke="#03015a" points="439.468,-628.729 447.503,-621.267 441.413,-624.123 443.358,-619.517 443.358,-619.517 443.358,-619.517 441.413,-624.123 439.212,-617.767 439.468,-628.729 439.468,-628.729"/>
</g>
</g>
</svg>
